<?xml version="1.0" encoding="utf-8"?>
<svg xmlns="http://www.w3.org/2000/svg" viewBox="0 0 100 100" preserveAspectRatio="xMidYMid">
    <path fill-rule="evenodd" clip-rule="evenodd" fill="#4481C3" d="M30.6,18.4c0.2-0.7,0.8-1.1,1.5-1c0.7,0.2,1.1,0.8,1,1.5l-9.3,41.9c-0.2,0.7-0.8,1.1-1.5,1s-1.1-0.8-1-1.5
	L30.6,18.4L30.6,18.4z"/>
    <path fill-rule="evenodd" clip-rule="evenodd" fill="#383838" d="M17.3,35.2c0.2,0.4,0.2,0.7,0.1,1h3.6c0.2-1.5-0.1-2.6-1-3.5c-0.8-0.9-2.1-1.3-3.8-1.3c-1.2,0-2.3,0.3-3.2,0.8
	c-1,0.5-1.8,1.3-2.5,2.1c-0.8,1-1.5,2.3-2.1,3.9c-0.3,0.9-0.6,2-0.9,3.4c-0.5,2.4-0.5,4.3,0,5.9c0.7,1.9,2.2,2.9,4.5,2.9
	c2.2,0,3.9-0.7,5.2-2s2.1-2.8,2.5-4.5c0.4-1.7,0.2-3.1-0.7-4.3c-0.8-1.1-2-1.7-3.7-1.7c-0.7,0-1.4,0.1-2.1,0.4
	c-0.7,0.3-1.3,0.7-1.8,1.2c0.4-1.4,0.8-2.5,1.2-3.2c0.8-1.3,1.8-2,2.9-2C16.5,34.3,17,34.6,17.3,35.2z M14.9,46.5
	c-0.6,0.6-1.3,0.9-2.1,0.9c-0.8,0-1.4-0.3-1.8-0.9c-0.4-0.6-0.5-1.4-0.3-2.4c0.3-1.2,0.8-2.1,1.6-2.7c0.5-0.4,1.1-0.6,1.8-0.6
	c0.8,0,1.3,0.3,1.7,0.9c0.4,0.6,0.5,1.4,0.3,2.5C15.9,45.1,15.5,45.9,14.9,46.5z M47.1,36.6c0-1.6-0.5-2.7-1.3-3.4
	c-0.8-0.7-2.1-1-3.7-1c-1.1,0-2.1,0.2-3.1,0.7c-0.9,0.4-1.7,1.1-2.4,1.8c-0.7,0.8-1.3,1.7-1.7,2.6c-0.5,1-0.8,2-1,3.2
	c-0.2,1-0.3,2.1-0.3,3.1s0.2,1.9,0.5,2.7c0.3,0.8,0.9,1.5,1.6,1.9c0.7,0.5,1.8,0.7,3,0.7c0.8,0,1.5-0.1,2.3-0.4
	c0.7-0.3,1.4-0.6,2-1.1c0.6-0.5,1.1-1,1.6-1.6c0.5-0.6,0.9-1.3,1.2-2.1h1.8c-0.4,0.9-0.9,1.8-1.5,2.6c-0.6,0.8-1.2,1.5-2,2.1
	c-0.8,0.6-1.7,1.1-2.7,1.4c-1,0.4-2.1,0.5-3.4,0.5c-1.4,0-2.6-0.3-3.5-0.8c-0.9-0.5-1.6-1.2-2.1-2.1c-0.5-0.9-0.7-1.9-0.8-3.1
	c0-1.2,0.1-2.4,0.4-3.8c0.4-1.8,0.9-3.3,1.6-4.5c0.7-1.2,1.5-2.3,2.5-3.1c0.9-0.8,2-1.4,3.1-1.7c1.2-0.4,2.4-0.5,3.6-0.5
	c1.9,0,3.4,0.5,4.5,1.5c1.1,1,1.6,2.5,1.5,4.4H47.1z M49.7,49.9l2.9-13.5h1.6l-2.9,13.5H49.7z M53.6,31.2l-0.5,2.3h1.7l0.5-2.3H53.6
	z M60,50c-0.2,0-0.5,0.1-0.8,0.2s-0.7,0.1-1.1,0.1c-0.8,0-1.3-0.2-1.7-0.6c-0.3-0.4-0.4-1.1-0.2-2.1l2.1-9.9h-1.9l0.3-1.3h1.9
	l0.8-3.7H61l-0.8,3.7h2.5l-0.3,1.3h-2.5L58,47c-0.1,0.3-0.1,0.6-0.2,0.9s0,0.4,0,0.6c0.1,0.2,0.2,0.3,0.3,0.3
	c0.2,0.1,0.4,0.1,0.7,0.1c0.2,0,0.4,0,0.6-0.1c0.2,0,0.4-0.1,0.7-0.1C60.2,48.7,60,50,60,50z M65.6,36.4l-2.9,13.5h1.6l2.9-13.5
	C67.1,36.4,65.6,36.4,65.6,36.4z M66.1,33.5l0.5-2.3h1.7l-0.5,2.3H66.1z M79.7,40.4c0.1,0.6,0,1.2-0.1,1.9h-8.8
	c0.2-0.6,0.5-1.2,0.8-1.8c0.3-0.6,0.8-1.1,1.2-1.5c0.5-0.4,1-0.8,1.6-1c0.6-0.3,1.3-0.4,1.9-0.4c0.7,0,1.3,0.1,1.8,0.4
	s0.9,0.6,1.1,1S79.7,39.8,79.7,40.4z M70.6,43.5c-0.2,0.7-0.2,1.4-0.2,2.1c0.1,0.6,0.2,1.2,0.5,1.7c0.3,0.5,0.7,0.9,1.2,1.1
	c0.5,0.3,1.1,0.4,1.9,0.4c1,0,2-0.3,2.8-0.8s1.5-1.3,1.9-2.3h1.7c-0.3,0.6-0.7,1.2-1.1,1.8c-0.4,0.5-0.9,1-1.5,1.4
	c-0.6,0.4-1.2,0.7-1.9,0.9c-0.7,0.2-1.5,0.3-2.3,0.3c-1.1,0-2-0.2-2.7-0.5s-1.2-0.9-1.6-1.5c-0.4-0.6-0.6-1.4-0.6-2.2s0-1.8,0.2-2.8
	c0.2-1,0.5-1.9,1-2.8c0.5-0.9,1-1.6,1.7-2.3c0.7-0.6,1.4-1.2,2.3-1.5c0.9-0.4,1.8-0.6,2.7-0.6c1.9,0,3.2,0.6,4,1.9
	c0.8,1.3,0.9,3.1,0.4,5.6C81,43.5,70.6,43.5,70.6,43.5z M85.3,48.1c-0.5-0.5-0.8-1.3-0.8-2.5h-1.6c-0.1,0.6-0.1,1.2,0,1.8
	c0.1,0.6,0.4,1,0.7,1.5c0.3,0.4,0.8,0.7,1.4,1c0.6,0.2,1.2,0.4,2,0.4s1.5-0.1,2.2-0.2c0.7-0.2,1.3-0.4,1.9-0.7
	c0.6-0.3,1-0.7,1.4-1.2s0.6-1.1,0.8-1.7s0.1-1.2,0-1.6c-0.1-0.4-0.4-0.8-0.8-1.1c-0.4-0.3-0.8-0.5-1.2-0.7c-0.5-0.2-1-0.3-1.5-0.5
	c-0.5-0.1-1-0.3-1.5-0.4c-0.4-0.1-0.9-0.3-1.3-0.5c-0.3-0.2-0.6-0.4-0.8-0.7c-0.2-0.3-0.2-0.7-0.1-1.1c0.1-0.7,0.5-1.3,1.1-1.7
	s1.4-0.6,2.4-0.6c1,0,1.7,0.2,2.3,0.6c0.6,0.4,0.8,1.2,0.7,2.2h1.6c0.1-1.5-0.2-2.6-1-3.3c-0.8-0.6-1.9-1-3.3-1
	c-1.5,0-2.7,0.4-3.7,1.1s-1.6,1.6-1.8,2.8c-0.2,0.9-0.1,1.6,0.2,2.1c0.3,0.5,0.8,0.9,1.4,1.1c0.6,0.3,1.2,0.5,1.9,0.6
	c0.7,0.1,1.4,0.3,2,0.5c0.6,0.2,1.1,0.4,1.4,0.8c0.4,0.3,0.5,0.8,0.3,1.5c-0.1,0.3-0.2,0.7-0.4,0.9c-0.2,0.3-0.5,0.6-0.8,0.8
	c-0.3,0.2-0.7,0.4-1.1,0.6c-0.5,0.1-1,0.2-1.5,0.2C86.7,48.9,85.8,48.6,85.3,48.1z"/>

    <circle cx="84" cy="80" r="10" fill="#4580c7">
        <animate attributeName="r" repeatCount="indefinite" dur="0.25s" calcMode="spline" keyTimes="0;1" values="10;0"
                 keySplines="0 0.5 0.5 1" begin="0s"></animate>
        <animate attributeName="fill" repeatCount="indefinite" dur="1s" calcMode="discrete" keyTimes="0;0.25;0.5;0.75;1"
                 values="#4580c7;#fe9300;#4580c7;#4580c7;#4580c7" begin="0s"></animate>
    </circle>
    <circle cx="16" cy="80" r="10" fill="#4580c7">
        <animate attributeName="r" repeatCount="indefinite" dur="1s" calcMode="spline" keyTimes="0;0.25;0.5;0.75;1"
                 values="0;0;10;10;10" keySplines="0 0.5 0.5 1;0 0.5 0.5 1;0 0.5 0.5 1;0 0.5 0.5 1"
                 begin="0s"></animate>
        <animate attributeName="cx" repeatCount="indefinite" dur="1s" calcMode="spline" keyTimes="0;0.25;0.5;0.75;1"
                 values="16;16;16;50;84" keySplines="0 0.5 0.5 1;0 0.5 0.5 1;0 0.5 0.5 1;0 0.5 0.5 1"
                 begin="0s"></animate>
    </circle>
    <circle cx="50" cy="80" r="10" fill="#4580c7">
        <animate attributeName="r" repeatCount="indefinite" dur="1s" calcMode="spline" keyTimes="0;0.25;0.5;0.75;1"
                 values="0;0;10;10;10" keySplines="0 0.5 0.5 1;0 0.5 0.5 1;0 0.5 0.5 1;0 0.5 0.5 1"
                 begin="-0.25s"></animate>
        <animate attributeName="cx" repeatCount="indefinite" dur="1s" calcMode="spline" keyTimes="0;0.25;0.5;0.75;1"
                 values="16;16;16;50;84" keySplines="0 0.5 0.5 1;0 0.5 0.5 1;0 0.5 0.5 1;0 0.5 0.5 1"
                 begin="-0.25s"></animate>
    </circle>
    <circle cx="84" cy="80" r="10" fill="#4580c7">
        <animate attributeName="r" repeatCount="indefinite" dur="1s" calcMode="spline" keyTimes="0;0.25;0.5;0.75;1"
                 values="0;0;10;10;10" keySplines="0 0.5 0.5 1;0 0.5 0.5 1;0 0.5 0.5 1;0 0.5 0.5 1"
                 begin="-0.5s"></animate>
        <animate attributeName="cx" repeatCount="indefinite" dur="1s" calcMode="spline" keyTimes="0;0.25;0.5;0.75;1"
                 values="16;16;16;50;84" keySplines="0 0.5 0.5 1;0 0.5 0.5 1;0 0.5 0.5 1;0 0.5 0.5 1"
                 begin="-0.5s"></animate>
    </circle>
    <circle cx="16" cy="80" r="10" fill="#fe9300">
        <animate attributeName="r" repeatCount="indefinite" dur="1s" calcMode="spline" keyTimes="0;0.25;0.5;0.75;1"
                 values="0;0;10;10;10" keySplines="0 0.5 0.5 1;0 0.5 0.5 1;0 0.5 0.5 1;0 0.5 0.5 1"
                 begin="-0.75s"></animate>
        <animate attributeName="cx" repeatCount="indefinite" dur="1s" calcMode="spline" keyTimes="0;0.25;0.5;0.75;1"
                 values="16;16;16;50;84" keySplines="0 0.5 0.5 1;0 0.5 0.5 1;0 0.5 0.5 1;0 0.5 0.5 1"
                 begin="-0.75s"></animate>
    </circle>
</svg>
